# xmcd
#
# Track frame offsets:
#	150
#	11481
#	32008
#	50006
#	67882
#	86307
#	105361
#	126327
#	139849
#	159853
#	178224
#	193755
#	210075
#	225268
#
# Disc length: 3231 seconds
#
# Revision: 1
# Processed by: cddbd v1.5.2PL0 Copyright (c) Steve Scherf et al.
# Submitted via: EasyCDDAExtractor 4.6.9.1
#
DISCID=a90c9d0e
DTITLE=Samian - Face à la musique
DYEAR=2010
DGENRE=Rap
TTITLE0=Peuple invincible
TTITLE1=Mino Picaok [ooma kopec aki]
TTITLE2=Les mots [Feat Anodajay et Shauit]
TTITLE3=Warrior
TTITLE4=Délivrez les jeunes [Feat Soke et Shauit]
TTITLE5=Tshinanu [Feat Kashtin]
TTITLE6=Regarde ailleurs [Feat Marième de CEA]
TTITLE7=Le Rap pour moi
TTITLE8=Le coeur d'un poète [Feat Sola]
TTITLE9=So Much [Feat Shauit]
TTITLE10=Mes idéaux
TTITLE11=Mes réserves
TTITLE12=L'étrangère [Feat Andréanne Beaudoin]
TTITLE13=La plume d'aigle
EXTD=Watchia !\n
EXTT0=
EXTT1=
EXTT2=
EXTT3=
EXTT4=
EXTT5=
EXTT6=
EXTT7=
EXTT8=
EXTT9=
EXTT10=
EXTT11=
EXTT12=
EXTT13=
PLAYORDER=
